<svg xmlns="http://www.w3.org/2000/svg" fill="none" viewBox="0 0 931 741">
  <path d="M176.607 274.463c-47.823 0-113.507 66.495-113.507 91.971 0 0 25.525 13.935 25.525 9.43 0-13.802 57.277-82.732 92.583-82.732 1.364 0 2.826 1.605 2.861 8.1.368 68.442-156.273 88.887-176.488 88.887-13.89 0-5.301 18.217 8.588 18.217 55.83 0 202.273-29.987 202.273-85.818 0-36.438-22.117-48.055-41.835-48.055z" fill="#F6F5B5"/>
  <path d="M231.66 130.07c6.212 0-13.831-11.73-20.043-11.73-9.259 0-156.583 250.093-156.583 259.352 0 9.259 26.8 12.907 26.8 5.622 0-6.749 143.077-253.244 149.826-253.244zm368.115 93.578c-18.795 0-111.865 53.182-111.865 106.252 0 29.707 35.97 30.127 44.706 30.127 8.736 0 44.286-23.048 44.286-31.203 0-12.668-1.942-13.808-6.709-13.808-7.156 0-39.658 25.181-46.814 25.181-3.704 0-3.894-2.478-3.894-6.182 0-32.661 70.528-87.54 85.886-87.54 8.985 0 10.99-3.552 10.99-7.613 0-4.062-7.592-15.214-16.586-15.214z" fill="#F6F5B5"/>
  <path d="M696.221 106.549c-16.677 0-149.087 207.332-149.087 229.088 0 11.654 22.542 24.001 22.542 16.498 0-19.78 138.125-233.062 142.394-233.062 7.305 0-5.214-12.524-15.849-12.524z" fill="#F6F5B5"/>
  <path d="M700.502 247.233c0-2.99-13.867-17.284-19.447-17.284-59.785 0-93.128 54.994-93.128 87.008 0 24.62 28.659 29.503 40.105 29.503 46.704 0 76.882-54.445 76.882-76.995 0-11.962-2.88-19.26-10.088-19.26-4.797 0-13.87 4.352-13.87 17.574 0 16.45-29.949 54.933-59.719 54.933-2.124 0-2.403-3.431-2.403-5.554 0-28.737 30.253-63.261 58.989-63.261 19.294 0 22.679-1.887 22.679-6.664z" fill="#F6F5B5"/>
  <path d="M775.031 243.357c.072-4.3-14.872-15.766-26.13-15.766-29.977 0-70.113 54.746-70.113 84.723 0 27.668 30.181 29.868 31.709 29.868 20.351 0 60.382-22.35 60.382-30.785 0-6.835-.747-11.429-3.819-11.429-6.977 0-8.132 2.96-8.132 5.75 0 2.789-39.209 18.119-47.305 18.119-1.703 0-1.678-2.624-1.678-6.631 0-43.425 43.423-70.302 51.14-70.302 5.409 0 13.946-2.038 13.946-3.547z" fill="#F6F5B5"/>
  <path d="M889.032 98.842c-24.961 0-204.306 315.12-204.306 342.318 0 5.286 21.699 14.696 21.699 9.41 0-28.33 184.742-335.975 200.247-335.975 7.063 0-7.2-15.753-17.64-15.753z" fill="#F6F5B5"/>
  <path d="M864.933 214.749c-6.474 0-84.225 71.066-84.225 82.009 0 14.829 15.034 20.409 21.682 20.409 20.627 0 107.642 1.376 112.547 1.602 4.905.226 5.929-.981 6.163-3.288.235-2.308-8.917-10.628-14.172-11.161-5.254-.533-64.457-1.415-92.244-1.415-9.457 0 66.727-65.889 66.727-75.346 0-3.785-10.004-12.81-16.478-12.81zm-237.372 163.39c-11.05.154-337.597 29.108-346.838 29.236-9.242.13-10.134 8.18-10.084 11.796.051 3.616 10.01 11.716 25.078 11.505 15.068-.21 334.269-21.36 343.309-21.486 9.041-.127 19.192-7.101 19.135-11.119-.056-4.018-23.568-20.031-30.6-19.932zM473.485 244.993c-34.803 0-104.912 92.798-104.912 99.967 0 9.58 21.173 18.441 21.173 12.251 0-7.761 80.568-95.481 97.023-95.481 3.699 0 11.935-1.058 11.935-1.744 0-5.627-14.323-14.993-25.219-14.993z" fill="#F6F5B5"/>
  <path d="M500.219 265.401c0-8.599-7.548-14.264-17.17-14.264-10.824 0-45.351 78.182-45.351 91.369 0 8.284 11.293 12.404 22.148 12.404 4.789 0 40.373-81.841 40.373-89.509z" fill="#F6F5B5"/>
  <path d="M445.548 346.815c0 9.015 14.657 8.85 19.798 8.85 8.39 0 53.116-59.408 53.116-61.361 0-4.118-6.563-4.136-12.628-4.136-4.159 0-60.286 47.632-60.286 56.647z" fill="#F6F5B5"/>
  <path fill-rule="evenodd" clip-rule="evenodd" d="M264.492 261.905c-28.35 0-77.436 47.733-78.203 96.225-.05 16.355 26.232 17.897 41.977 17.897 15.745 0-2.861-12.146-6.067-12.146-3.207 0-3.302-3.465-3.302-5.904 0-21.963 37.065-72.896 55.031-72.896 9.894 0 19.687.516 22.593.6 5.76.168 6.868-2.492 6.868-5.568 0-3.076-20.907-18.208-38.897-18.208z" fill="#F6F5B5"/>
  <path fill-rule="evenodd" clip-rule="evenodd" d="M195.793 361.447c0 8.493 12.371 22.311 40.665 22.311 23.79 0 72.525-46.797 72.525-66.326 0-19.53-13.968-47.87-19.757-47.87-5.789 0-11.683 1.818-11.683 4.703 0 2.885 7.457 14.704 7.457 27.095 0 18.535-43.226 60.698-61.761 60.698-3.207 0-27.446-3.05-27.446-.611z" fill="#F6F5B5"/>
  <path fill-rule="evenodd" clip-rule="evenodd" d="M385.556 267.039c.118-2.516-21.336-14.475-27.562-14.475-29.608 1.737-85.091 62.61-85.091 89.203 0 17.795 15.278 21.826 18.903 21.826 3.626 0 16.773-3.759 16.773-8.054 0-43.488 49.032-81.442 64.442-81.442 10.572 0 12.469-5.668 12.535-7.058z" fill="#F6F5B5"/>
  <path fill-rule="evenodd" clip-rule="evenodd" d="M360.948 260.528c-4.292-.044-5.907 2.563-5.843 6.212.064 3.65 17.004 15.098 17.004 30.047 0 23.922-46.659 51.617-62.41 51.617-8.072 0-27.449.85-27.449 3.564 0 2.713 8.824 19.246 31.386 19.246 55.745 0 89.861-46.192 89.861-61.137 0-17.777-20.224-49.323-42.549-49.549z" fill="#F6F5B5"/>
  <path d="M119.528 424.593c.301-1.742 4.211-4.007 8.939-3.243 4.726.73 6.065 2.341 5.689 4.518-.878 5.079-6.139 13.51-10.364 12.78-2.776-.48-2.708-2.682-2.363-4.673.344-1.992-.709-2.765-2.075-3-1.367-.237-2.17.215-2.514 2.207-1.049 6.07.401 9.345 5.926 10.3 4.336.75 14.093-7.221 15.75-16.805.791-4.576-1.407-8.02-9.637-9.443-7.289-1.405-12.659 1.853-13.54 6.945-.88 5.092.732 7.166 3.245 7.6 1.058.183 1.94.014 2.146-1.176.206-1.19.09-2.248-.861-2.431-1.352-.258-.642-1.838-.341-3.579z" fill="#F6F5B5"/>
  <path fill-rule="evenodd" clip-rule="evenodd" d="M143.515 440.988c-.828 0-2.479-.771-2.479-2.762 0-9.322 9.362-22.904 23.577-22.904 5.24 0 8.144 2.389 8.144 10.792 0 6.364-4.564 14.436-7.981 14.436-4.892 0 3.515-6.915 3.515-13.732 0-2.612-.198-6.22-4.029-6.22-11.384 0-18.451 10.822-18.451 17.41 0 2.759-1.468 2.98-2.296 2.98z" fill="#F6F5B5"/>
  <path fill-rule="evenodd" clip-rule="evenodd" d="M152.372 440.261c.592 0 1.722-.084 1.717-1.246-.005-.959 1.092-2.863 2.693-2.863.854 0 5.687-2.658 5.687-5.361s-1.146-1.555-1.146-3.387c0-1.831 3.543-2.897 3.543-4.728s-2.055-4.761-4.046-4.761c-1.992 0-3.93.184-3.93 1.628 0 1.445.093 2.083 1.077 2.083s2.354.286 2.354 1.315c0 2.871-5.481 3.331-5.481 5.148 0 1.817.859 2.017 1.629 2.017s1.477.063 1.477.769c0 2.009-2.63 2.941-4.639 2.941-1.405 0-2.34 6.445-.935 6.445zm28.029-22.893c0 .841.822 2.512 1.838 2.512.791 0 18.384-1.685 19.159-1.685.775 0 1.127-1.513 1.127-2.261 0-.747-.404-2.201-1.502-2.203-1.099-.003-18.098 1.467-18.939 1.467-1.091 0-1.683 1.329-1.683 2.17z" fill="#F6F5B5"/>
  <path fill-rule="evenodd" clip-rule="evenodd" d="M200.346 433.946c0-3.138-5.442-.247-8.58-.247-7.371 0-10.307 1.004-10.307-2.484 0-2.595 9.719-15.161 7.123-15.161-5.083 0-11.699 7.607-11.858 16.173-.128 6.865 6.648 6.072 13.514 6.072 3.781 0 10.108-1.215 10.108-4.353zm12.728-22.011c-1.233 0-2.471 1.573-2.471 2.973 0 2.418 3.134 4.745 6.056 4.745 3.194 0 9.229-3.004 11.609-3.004 2.959 0 2.937 3.166 5.06 3.166 1.231 0 1.686-1.798 1.686-2.89 0-2.058-2.818-5.197-6.124-5.197-3.969 0-7.199 3.289-9.929 3.289-5.231 0-3.157-3.082-5.887-3.082z" fill="#F6F5B5"/>
  <path fill-rule="evenodd" clip-rule="evenodd" d="M215.437 433.888c1.478 0 2.695-1.32 2.695-2.023 0-.703 8.087-14.203 8.087-14.96 0-1.084-1.872-1.15-2.956-1.15-.872 0-2.336.397-2.336 1.502 0 1.106-7.781 14.229-7.781 14.984 0 .884.813 1.647 2.291 1.647z" fill="#F6F5B5"/>
  <path fill-rule="evenodd" clip-rule="evenodd" d="M208.232 428.878c-.934.017-1.756 1.431-1.756 2.558 0 2.833 4.015 5.793 8.685 5.793 3.731 0 6.757-4.033 8.853-4.033 3.169 0 2.566 2.303 4.592 2.303 1.473 0 2.065-2.373 2.065-3.002 0-1.588-1.419-4.241-4.691-4.241s-8.769 3.837-10.942 3.837c-5.262 0-4.085-3.268-6.806-3.215zm6.253 12.137c-1.471-.044-1.957 1.369-1.851 2.073.106.704 6.731 6.815 7.442 6.815 1.49 0 2.205-.829 2.205-1.83 0-1-6.636-7.024-7.796-7.058zm-62.371 3.16c-1.471-.043-1.957 1.37-1.851 2.074.106.704 6.731 6.815 7.442 6.815 1.49 0 2.205-.829 2.205-1.83 0-1-6.636-7.024-7.796-7.059z" fill="#F6F5B5"/>
  <path fill-rule="evenodd" clip-rule="evenodd" d="M220.338 440.929c1.471-.044 1.957 1.37 1.851 2.074-.106.703-6.731 6.815-7.443 6.815-1.489 0-2.204-.83-2.204-1.83 0-1.001 6.636-7.024 7.796-7.059zm-62.365 3.161c1.472-.044 1.958 1.37 1.852 2.073-.106.704-6.731 6.815-7.443 6.815-1.489 0-2.204-.829-2.204-1.83 0-1 6.636-7.024 7.795-7.058z" fill="#F6F5B5"/>
  <path d="M185.709 450.518c2.037 0 3.688-1.641 3.688-3.665 0-2.025-1.651-3.666-3.688-3.666s-3.689 1.641-3.689 3.666c0 2.024 1.652 3.665 3.689 3.665zm-62.372 3.175c2.038 0 3.689-1.641 3.689-3.665 0-2.025-1.651-3.666-3.689-3.666-2.037 0-3.688 1.641-3.688 3.666 0 2.024 1.651 3.665 3.688 3.665z" fill="#F6F5B5"/>
</svg>
